{
  "accessors": [
    {
      "bufferView": 2,
      "componentType": 5126,
      "count": 2789,
      "max": [
        0.75499427318573,
        0.7549940347671509,
        2.4271323680877686
      ],
      "min": [
        -0.7549935579299927,
        -0.754993736743927,
        0.0
      ],
      "type": "VEC3"
    },
    {
      "bufferView": 2,
      "byteOffset": 33468,
      "componentType": 5126,
      "count": 2789,
      "max": [
        0.9998329281806946,
        0.9998086094856262,
        0.9996443390846252
      ],
      "min": [
        -0.999891459941864,
        -0.9998013377189636,
        -1.0
      ],
      "type": "VEC3"
    },
    {
      "bufferView": 3,
      "componentType": 5126,
      "count": 2789,
      "max": [
        1.0,
        1.0,
        0.992717981338501,
        1.0
      ],
      "min": [
        -1.0,
        -1.0,
        -0.9908228516578674,
        1.0
      ],
      "type": "VEC4"
    },
    {
      "bufferView": 1,
      "componentType": 5126,
      "count": 2789,
      "max": [
        0.9866459965705872,
        0.9546770453453064
      ],
      "min": [
        0.011038444936275482,
        0.013219964690506458
      ],
      "type": "VEC2"
    },
    {
      "bufferView": 0,
      "componentType": 5125,
      "count": 15360,
      "type": "SCALAR"
    },
    {
      "bufferView": 2,
      "byteOffset": 66936,
      "componentType": 5126,
      "count": 532,
      "max": [
        1.0,
        1.0,
        3.428630828857422
      ],
      "min": [
        -1.0,
        -1.0,
        0.35948485136032104
      ],
      "type": "VEC3"
    },
    {
      "bufferView": 2,
      "byteOffset": 73320,
      "componentType": 5126,
      "count": 532,
      "max": [
        1.0,
        1.0,
        1.0
      ],
      "min": [
        -1.0,
        -1.0,
        -0.5438496470451355
      ],
      "type": "VEC3"
    },
    {
      "bufferView": 1,
      "byteOffset": 22312,
      "componentType": 5126,
      "count": 532,
      "max": [
        0.9800000190734863,
        0.8938498497009277
      ],
      "min": [
        0.019999999552965164,
        0.11076980829238892
      ],
      "type": "VEC2"
    },
    {
      "bufferView": 0,
      "byteOffset": 61440,
      "componentType": 5125,
      "count": 2976,
      "type": "SCALAR"
    }
  ],
  "asset": {
    "extras": {
      "author": "Canary Games (https://sketchfab.com/CapAlatriste)",
      "license": "CC-BY-4.0 (http://creativecommons.org/licenses/by/4.0/)",
      "source": "https://sketchfab.com/3d-models/2-eco-light-3december2019-c0088d68f6234ed8b003c0791b7477ab",
      "title": "#2 Eco-Light 3December2019"
    },
    "generator": "Sketchfab-12.68.0",
    "version": "2.0"
  },
  "bufferViews": [
    {
      "buffer": 0,
      "byteLength": 73344,
      "name": "floatBufferViews",
      "target": 34963
    },
    {
      "buffer": 0,
      "byteLength": 26568,
      "byteOffset": 73344,
      "byteStride": 8,
      "name": "floatBufferViews",
      "target": 34962
    },
    {
      "buffer": 0,
      "byteLength": 79704,
      "byteOffset": 99912,
      "byteStride": 12,
      "name": "floatBufferViews",
      "target": 34962
    },
    {
      "buffer": 0,
      "byteLength": 44624,
      "byteOffset": 179616,
      "byteStride": 16,
      "name": "floatBufferViews",
      "target": 34962
    }
  ],
  "buffers": [
    {
      "byteLength": 224240,
      "uri": "scene.bin"
    }
  ],
  "extensionsUsed": [
    "KHR_materials_transmission"
  ],
  "images": [
    {
      "uri": "textures/Restoration_baseColor.png"
    },
    {
      "uri": "textures/Restoration_metallicRoughness.png"
    },
    {
      "uri": "textures/Restoration_emissive.png"
    },
    {
      "uri": "textures/Restoration_normal.png"
    }
  ],
  "materials": [
    {
      "alphaMode": "BLEND",
      "doubleSided": true,
      "emissiveFactor": [
        1.0,
        1.0,
        1.0
      ],
      "emissiveTexture": {
        "index": 2
      },
      "name": "Restoration",
      "normalTexture": {
        "index": 3
      },
      "occlusionTexture": {
        "index": 1
      },
      "pbrMetallicRoughness": {
        "baseColorTexture": {
          "index": 0
        },
        "metallicRoughnessTexture": {
          "index": 1
        }
      }
    },
    {
      "alphaMode": "BLEND",
      "doubleSided": true,
      "extensions": {
        "KHR_materials_transmission": {
          "transmissionFactor": 0.8104545362
        }
      },
      "name": "Restoration_Glass",
      "pbrMetallicRoughness": {
        "baseColorFactor": [
          0.03709710925778361,
          0.03709710925778361,
          0.03709710925778361,
          0.25
        ],
        "roughnessFactor": 0.0
      }
    }
  ],
  "meshes": [
    {
      "name": "Object_0",
      "primitives": [
        {
          "attributes": {
            "NORMAL": 1,
            "POSITION": 0,
            "TANGENT": 2,
            "TEXCOORD_0": 3
          },
          "indices": 4,
          "material": 0,
          "mode": 4
        }
      ]
    },
    {
      "name": "Object_1",
      "primitives": [
        {
          "attributes": {
            "NORMAL": 6,
            "POSITION": 5,
            "TEXCOORD_0": 7
          },
          "indices": 8,
          "material": 1,
          "mode": 4
        }
      ]
    }
  ],
  "nodes": [
    {
      "children": [
        1
      ],
      "matrix": [
        1.0,
        0.0,
        0.0,
        0.0,
        0.0,
        2.220446049250313e-16,
        -1.0,
        0.0,
        0.0,
        1.0,
        2.220446049250313e-16,
        0.0,
        0.0,
        0.0,
        0.0,
        1.0
      ],
      "name": "Sketchfab_model"
    },
    {
      "children": [
        2,
        3
      ],
      "name": "6221a57573aa4a00b6f1d9442283c703.obj.cleaner.materialmerger.gles"
    },
    {
      "mesh": 0,
      "name": "Object_2"
    },
    {
      "mesh": 1,
      "name": "Object_3"
    }
  ],
  "samplers": [
    {
      "magFilter": 9729,
      "minFilter": 9987,
      "wrapS": 10497,
      "wrapT": 10497
    }
  ],
  "scene": 0,
  "scenes": [
    {
      "name": "Sketchfab_Scene",
      "nodes": [
        0
      ]
    }
  ],
  "textures": [
    {
      "sampler": 0,
      "source": 0
    },
    {
      "sampler": 0,
      "source": 1
    },
    {
      "sampler": 0,
      "source": 2
    },
    {
      "sampler": 0,
      "source": 3
    }
  ]
}
